<svg width="328" height="316" viewBox="0 0 328 316" fill="none" xmlns="http://www.w3.org/2000/svg">
<rect width="328" height="316" fill="white"/>
<rect width="328" height="316" fill="white"/>
<path d="M151.199 145.038V118.463C158.467 116.128 161.584 115.841 170.899 118.463V145.038H151.199Z" fill="white"/>
<path fill-rule="evenodd" clip-rule="evenodd" d="M137.015 176.534V123.49C137.015 123.49 120.466 131.391 120.466 152.22C120.466 164.484 126.203 172.764 130.921 177.5C132.801 176.967 134.838 176.612 137.015 176.534ZM156.081 180.797C154.547 180.229 152.97 179.645 151.199 179.077V156.53H170.899V184.457C164.182 183.797 160.292 182.356 156.081 180.797ZM196.058 165.397C197.491 162.587 198.595 159.38 199.046 155.786C199.19 154.637 199.268 153.448 199.268 152.22C199.268 134.264 182.719 124.47 182.719 124.47V179.775C182.719 179.775 191.246 174.829 196.058 165.397Z" fill="white"/>
<path fill-rule="evenodd" clip-rule="evenodd" d="M137.102 123.815V176.492C140.844 175.438 144.335 176.354 151.422 178.918V156.738H170.883V184.463C176.28 183.367 179.077 182.527 182.633 179.611V124.508C182.633 124.508 177.912 120.382 170.883 118.052V144.608H151.422V117.949C143.125 120.09 137.102 123.815 137.102 123.815Z" fill="#181F28"/>
</svg>
